<svg xmlns="http://www.w3.org/2000/svg" xmlns:xlink="http://www.w3.org/1999/xlink" viewBox="0 0 225.05 244.35"><defs><style>.cls-1,.cls-4{fill:none;}.cls-2{opacity:0.75;}.cls-3{clip-path:url(#clip-path);}.cls-4{stroke:#fcee0a;stroke-miterlimit:10;}.cls-5{clip-path:url(#clip-path-2);}</style><clipPath id="clip-path" transform="translate(38.94 -4.17)"><polygon class="cls-1" points="0.5 216.58 105.55 216.58 146.05 176.08 146.05 20 41 20 0.5 60.5 0.5 216.58"/></clipPath><clipPath id="clip-path-2" transform="translate(38.94 -4.17)"><polygon class="cls-1" points="0.5 86.58 105.55 86.58 146.05 46.08 146.05 0 41 0 0.5 40.5 0.5 86.58"/></clipPath><image id="image" width="338" height="367" xlink:href="../HOLOME.png"/></defs><g id="Layer_2" data-name="Layer 2"><g id="Layer_1-2" data-name="Layer 1"><g class="cls-2"><polygon points="39.44 212.41 144.49 212.41 184.99 171.91 184.99 15.83 79.94 15.83 39.44 56.33 39.44 212.41"/><polygon points="39.44 212.41 144.49 212.41 184.99 171.91 184.99 15.83 79.94 15.83 39.44 56.33 39.44 212.41"/><polygon points="164.74 212.41 184.99 212.41 184.99 192.16 164.74 212.41"/></g><g class="cls-3"><use transform="scale(0.67)" xlink:href="#image"/></g><polygon class="cls-4" points="39.44 212.41 144.49 212.41 184.99 171.91 184.99 15.83 79.94 15.83 39.44 56.33 39.44 212.41"/><polygon class="cls-4" points="164.74 212.41 184.99 212.41 184.99 192.16 164.74 212.41"/><g class="cls-5"><use transform="scale(0.67)" xlink:href="#image"/></g></g></g></svg>