<svg xmlns="http://www.w3.org/2000/svg" viewBox="0 0 887 558.04"><g id="Layer_2" data-name="Layer 2"><g id="Layer_2-2" data-name="Layer 2"><path d="M476.4,255.1h-103a27.93,27.93,0,0,0-23.22,12.43l-68.46,102.7a27.92,27.92,0,0,1-23.22,12.42H28c-22.29,0-35.58-24.83-23.22-43.38L222.63,12.43A27.9,27.9,0,0,1,245.85,0h97.68a27.9,27.9,0,0,1,23.22,12.43L499.61,211.72C512,230.26,498.68,255.1,476.4,255.1Zm-89,91.22L520.25,545.61A27.93,27.93,0,0,0,543.47,558h97.68a27.93,27.93,0,0,0,23.22-12.43l217.9-326.85c12.36-18.54-.93-43.38-23.22-43.38H628.5a27.93,27.93,0,0,0-23.22,12.43l-68.46,102.7a27.92,27.92,0,0,1-23.22,12.42h-103C388.32,302.93,375,327.77,387.39,346.32Z"/></g></g></svg>