<svg xmlns="http://www.w3.org/2000/svg" viewBox="0 0 80.92 51.46"><defs><style>.cls-1{opacity:0.7;}.cls-2{fill:none;stroke:#fcee0a;stroke-miterlimit:10;stroke-width:1.5px;}</style></defs><g id="Layer_2" data-name="Layer 2"><g id="Layer_1-2" data-name="Layer 1"><path class="cls-1" d="M43.41,23.59H34.18A2.53,2.53,0,0,0,32.1,24.7L26,33.9A2.5,2.5,0,0,1,23.9,35H3.25a2.5,2.5,0,0,1-2.08-3.88L20.68,1.86A2.53,2.53,0,0,1,22.76.75h8.75a2.53,2.53,0,0,1,2.08,1.11L45.48,19.71A2.49,2.49,0,0,1,43.41,23.59Zm-8,8.17L47.33,49.6a2.5,2.5,0,0,0,2.08,1.11h8.75a2.5,2.5,0,0,0,2.08-1.11L79.75,20.34a2.51,2.51,0,0,0-2.08-3.89H57A2.48,2.48,0,0,0,55,17.57l-6.13,9.19a2.5,2.5,0,0,1-2.08,1.11H37.51A2.5,2.5,0,0,0,35.44,31.76Z"/><path class="cls-2" d="M43.41,23.59H34.18A2.53,2.53,0,0,0,32.1,24.7L26,33.9A2.5,2.5,0,0,1,23.9,35H3.25a2.5,2.5,0,0,1-2.08-3.88L20.68,1.86A2.53,2.53,0,0,1,22.76.75h8.75a2.53,2.53,0,0,1,2.08,1.11L45.48,19.71A2.49,2.49,0,0,1,43.41,23.59Zm-8,8.17L47.33,49.6a2.5,2.5,0,0,0,2.08,1.11h8.75a2.5,2.5,0,0,0,2.08-1.11L79.75,20.34a2.51,2.51,0,0,0-2.08-3.89H57A2.48,2.48,0,0,0,55,17.57l-6.13,9.19a2.5,2.5,0,0,1-2.08,1.11H37.51A2.5,2.5,0,0,0,35.44,31.76Z"/></g></g></svg>