<svg xmlns="http://www.w3.org/2000/svg" viewBox="0 0 1844.91 111.2"><defs><style>.cls-1{fill:#fcee0a;}</style></defs><g id="Layer_2" data-name="Layer 2"><g id="Layer_1-2" data-name="Layer 1"><path class="cls-1" d="M1825.71,9.73,1822,20h-2.17l3.76-10.24H1820L1816.21,20h-2.16l3.77-10.24h-3.57L1810.48,20h-2.16l3.77-10.24h-3.57L1804.76,20h-2.16l3.76-10.24h-3.56L1799,20h-2.16l3.76-10.24h-3.56L1793.3,20h-2.16l3.77-10.24h-3.57L1787.58,20h-2.17l3.77-10.24h-3.56L1781.85,20h-2.16l3.76-10.24h-3.56L1776.12,20H1774l3.77-10.24h-3.57L1770.4,20h-2.18L1772,9.73h-3.56L1764.67,20h-2.17l3.76-10.24h-3.55L1758.93,20h-2.16l3.77-10.24h-3.45L1753.32,20h-2.16l3.77-10.24h-3.57L1747.59,20h-2.16l3.77-10.24h-3.57L1741.87,20h-2.17l3.77-10.24h-3.56L1736.14,20H1734l3.76-10.24h-3.55L1730.4,20h-2.16L1732,9.73h-3.57L1724.68,20h-2.17l3.77-10.24h-3.56L1719,20h-2.16l3.76-10.24H1717L1713.22,20h-2.16l3.77-10.24h-3.57L1707.5,20h-2.17l3.77-10.24h-3.56L1701.77,20h-2.16l3.76-10.24h-3.56L1696,20h-2.16l3.77-10.24h-3.57L1690.31,20h-2.16l3.77-10.24h-3.46L1684.69,20h-2.16l3.77-10.24h-3.57L1679,20h-2.17l3.77-10.24H1677L1673.24,20h-2.16l3.76-10.24h-3.56L1667.51,20h-2.16l3.77-10.24h-3.57L1661.79,20h-2.17l3.77-10.24h-3.56L1656.06,20h-2.17l3.77-10.24h-3.56L1650.33,20h-2.17l3.77-10.24h-3.56L1644.6,20h-2.17l3.77-10.24h-3.56L1638.87,20h-2.16l3.76-10.24h-3.56L1633.14,20H1631l3.77-10.24h-3.57L1627.41,20h-2.16L1629,9.73h-3.57L1621.69,20h-2.16l3.76-10.24H1325.15L1322,2.05H1160.53l-3.11,7.68L1156,13.22H981.62l-1.41-3.49H520.43l-5.11,12.66h-3l3.53-9.58h-2.17l-3.52,9.58h-3.57l3.53-9.58H508l-3.53,9.58h-3.56l3.52-9.58h-2.16l-3.53,9.58h-3.56l3.52-9.58h-2.16L493,22.39h-3.57L493,12.81h-2.17l-3.52,9.58h-3.57l3.53-9.58h-2.17l-3.52,9.58H478l3.52-9.58h-2.16l-3.53,9.58h-3.56l3.52-9.58h-2.16l-3.53,9.58h-3.56l3.52-9.58h-2.16l-3.52,9.58h-3.57l3.53-9.58h-2.17l-3.52,9.58h-3.57l3.53-9.58h-2.17l-3.52,9.58h-3.56l3.52-9.58h-2.16l-3.53,9.58H360.14L355,9.73H314.74L310.81,0H225.47l-3.93,9.73H0V111.2H1844.91V9.73ZM20.77,101.32a1.55,1.55,0,1,1,1.55-1.54A1.54,1.54,0,0,1,20.77,101.32Zm0-11.48a1.55,1.55,0,1,1,1.55-1.55A1.54,1.54,0,0,1,20.77,89.84Zm0-11.49a1.55,1.55,0,1,1,1.55-1.55A1.54,1.54,0,0,1,20.77,78.35Zm10,11.49a1.55,1.55,0,1,1,1.55-1.55A1.55,1.55,0,0,1,30.79,89.84Zm0-11.49a1.55,1.55,0,1,1,1.55-1.55A1.55,1.55,0,0,1,30.79,78.35Zm0-11.48a1.55,1.55,0,1,1,1.55-1.55A1.56,1.56,0,0,1,30.79,66.87Zm0-11.49a1.55,1.55,0,1,1,1.55-1.55A1.55,1.55,0,0,1,30.79,55.38Zm0-11.49a1.55,1.55,0,1,1,1.55-1.54A1.55,1.55,0,0,1,30.79,43.89Zm0-11.48a1.55,1.55,0,1,1,1.55-1.55A1.55,1.55,0,0,1,30.79,32.41Zm9.3,57.43a1.55,1.55,0,1,1,1.55-1.55A1.54,1.54,0,0,1,40.09,89.84Zm0-11.49a1.55,1.55,0,1,1,1.55-1.55A1.54,1.54,0,0,1,40.09,78.35Zm0-11.48a1.55,1.55,0,1,1,1.55-1.55A1.55,1.55,0,0,1,40.09,66.87Zm0-11.49a1.55,1.55,0,1,1,1.55-1.55A1.54,1.54,0,0,1,40.09,55.38Zm0-11.49a1.55,1.55,0,1,1,1.55-1.54A1.54,1.54,0,0,1,40.09,43.89Zm0-11.48a1.55,1.55,0,1,1,1.55-1.55A1.54,1.54,0,0,1,40.09,32.41Zm9.3,57.43a1.55,1.55,0,1,1,1.55-1.55A1.54,1.54,0,0,1,49.39,89.84Zm0-11.49a1.55,1.55,0,1,1,1.55-1.55A1.54,1.54,0,0,1,49.39,78.35Zm0-23a1.55,1.55,0,1,1,1.55-1.55A1.54,1.54,0,0,1,49.39,55.38Zm0-11.49a1.55,1.55,0,1,1,1.55-1.54A1.54,1.54,0,0,1,49.39,43.89Zm0-11.48a1.55,1.55,0,1,1,1.55-1.55A1.54,1.54,0,0,1,49.39,32.41Zm9.29,23a1.55,1.55,0,1,1,1.55-1.55A1.55,1.55,0,0,1,58.68,55.38Zm0-23a1.55,1.55,0,1,1,1.55-1.55A1.55,1.55,0,0,1,58.68,32.41ZM68,66.87a1.55,1.55,0,1,1,1.55-1.55A1.55,1.55,0,0,1,68,66.87Zm0-11.49a1.55,1.55,0,1,1,1.55-1.55A1.54,1.54,0,0,1,68,55.38Zm0-23a1.55,1.55,0,1,1,1.55-1.55A1.54,1.54,0,0,1,68,32.41Zm9.3,34.46a1.55,1.55,0,1,1,1.55-1.55A1.55,1.55,0,0,1,77.28,66.87Zm0-11.49a1.55,1.55,0,1,1,1.55-1.55A1.54,1.54,0,0,1,77.28,55.38Zm0-23a1.55,1.55,0,1,1,1.55-1.55A1.54,1.54,0,0,1,77.28,32.41Zm9.29,11.48a1.55,1.55,0,1,1,1.55-1.54A1.54,1.54,0,0,1,86.57,43.89Zm0-11.48a1.55,1.55,0,1,1,1.55-1.55A1.54,1.54,0,0,1,86.57,32.41Zm9.3,11.48a1.55,1.55,0,1,1,1.55-1.54A1.55,1.55,0,0,1,95.87,43.89Zm0-11.48a1.55,1.55,0,1,1,1.55-1.55A1.55,1.55,0,0,1,95.87,32.41Zm9.3,11.48a1.55,1.55,0,1,1,1.55-1.54A1.54,1.54,0,0,1,105.17,43.89Zm0-11.48a1.55,1.55,0,1,1,1.55-1.55A1.54,1.54,0,0,1,105.17,32.41Zm9.3,11.48A1.55,1.55,0,1,1,116,42.35,1.54,1.54,0,0,1,114.47,43.89Zm0-11.48A1.55,1.55,0,1,1,116,30.86,1.54,1.54,0,0,1,114.47,32.41Zm9.29,34.46a1.55,1.55,0,1,1,1.55-1.55A1.56,1.56,0,0,1,123.76,66.87Zm0-11.49a1.55,1.55,0,1,1,1.55-1.55A1.55,1.55,0,0,1,123.76,55.38Zm0-11.49a1.55,1.55,0,1,1,1.55-1.54A1.55,1.55,0,0,1,123.76,43.89Zm9.3,23a1.55,1.55,0,1,1,1.55-1.55A1.55,1.55,0,0,1,133.06,66.87Zm0-11.49a1.55,1.55,0,1,1,1.55-1.55A1.54,1.54,0,0,1,133.06,55.38Zm9.3,11.49a1.55,1.55,0,1,1,1.55-1.55A1.55,1.55,0,0,1,142.36,66.87Zm0-23a1.55,1.55,0,1,1,1.55-1.54A1.54,1.54,0,0,1,142.36,43.89Zm9.29,23a1.55,1.55,0,1,1,1.55-1.55A1.56,1.56,0,0,1,151.65,66.87Zm0-23a1.55,1.55,0,1,1,1.55-1.54A1.55,1.55,0,0,1,151.65,43.89Zm9.3,23a1.55,1.55,0,1,1,1.55-1.55A1.56,1.56,0,0,1,161,66.87Zm0-11.49a1.55,1.55,0,1,1,1.55-1.55A1.55,1.55,0,0,1,161,55.38Zm0-11.49a1.55,1.55,0,1,1,1.55-1.54A1.55,1.55,0,0,1,161,43.89Zm13.14,0a1.55,1.55,0,1,1,1.55-1.54A1.54,1.54,0,0,1,174.09,43.89Zm9.3,0a1.55,1.55,0,1,1,1.54-1.54A1.54,1.54,0,0,1,183.39,43.89Zm9.29,0a1.55,1.55,0,1,1,1.55-1.54A1.55,1.55,0,0,1,192.68,43.89ZM807.94,19.37a1.55,1.55,0,1,1,1.55-1.55A1.55,1.55,0,0,1,807.94,19.37Zm9.3,0a1.55,1.55,0,1,1,1.55-1.55A1.54,1.54,0,0,1,817.24,19.37Zm9.3,0a1.55,1.55,0,1,1,1.55-1.55A1.54,1.54,0,0,1,826.54,19.37Zm37.18,0a1.55,1.55,0,1,1,1.55-1.55A1.54,1.54,0,0,1,863.72,19.37Zm9.3,0a1.55,1.55,0,1,1,1.55-1.55A1.55,1.55,0,0,1,873,19.37Zm9.3,0a1.55,1.55,0,1,1,1.55-1.55A1.54,1.54,0,0,1,882.32,19.37Zm9.3,0a1.55,1.55,0,1,1,1.55-1.55A1.54,1.54,0,0,1,891.62,19.37Zm9.29,0a1.55,1.55,0,1,1,1.55-1.55A1.55,1.55,0,0,1,900.91,19.37Zm18.6,0a1.55,1.55,0,1,1,1.55-1.55A1.54,1.54,0,0,1,919.51,19.37Zm9.29,0a1.55,1.55,0,1,1,1.55-1.55A1.55,1.55,0,0,1,928.8,19.37Zm9.3,0a1.55,1.55,0,1,1,1.55-1.55A1.54,1.54,0,0,1,938.1,19.37Zm13.14,0a1.55,1.55,0,1,1,1.55-1.55A1.54,1.54,0,0,1,951.24,19.37Zm9.3,0a1.55,1.55,0,1,1,1.54-1.55A1.54,1.54,0,0,1,960.54,19.37Zm9.29,0a1.55,1.55,0,1,1,1.55-1.55A1.55,1.55,0,0,1,969.83,19.37Zm686,24.56a1.55,1.55,0,1,1,1.56-1.55A1.55,1.55,0,0,1,1655.87,43.93Zm9.33,0a1.55,1.55,0,1,1,1.55-1.55A1.55,1.55,0,0,1,1665.2,43.93Zm9.32,0a1.55,1.55,0,1,1,1.55-1.55A1.55,1.55,0,0,1,1674.52,43.93Zm13.17,11.52a1.56,1.56,0,1,1,1.55-1.55A1.55,1.55,0,0,1,1687.69,55.45Zm0-11.52a1.55,1.55,0,1,1,1.55-1.55A1.54,1.54,0,0,1,1687.69,43.93Zm9.32,0a1.55,1.55,0,1,1,1.55-1.55A1.54,1.54,0,0,1,1697,43.93Zm9.32,0a1.55,1.55,0,1,1,1.56-1.55A1.54,1.54,0,0,1,1706.33,43.93Zm9.32,11.52a1.56,1.56,0,1,1,1.56-1.55A1.56,1.56,0,0,1,1715.65,55.45Zm9.33,0a1.56,1.56,0,1,1,1.55-1.55A1.56,1.56,0,0,1,1725,55.45Zm0-11.52a1.55,1.55,0,1,1,1.55-1.55A1.55,1.55,0,0,1,1725,43.93Zm9.32,0a1.55,1.55,0,1,1,1.55-1.55A1.55,1.55,0,0,1,1734.3,43.93Zm0-11.51a1.56,1.56,0,1,1,1.55-1.56A1.56,1.56,0,0,1,1734.3,32.42Zm9.32,11.51a1.55,1.55,0,1,1,1.55-1.55A1.55,1.55,0,0,1,1743.62,43.93Zm0-11.51a1.56,1.56,0,1,1,1.55-1.56A1.56,1.56,0,0,1,1743.62,32.42Zm9.32,11.51a1.55,1.55,0,1,1,1.55-1.55A1.54,1.54,0,0,1,1752.94,43.93Zm0-11.51a1.56,1.56,0,1,1,1.55-1.56A1.55,1.55,0,0,1,1752.94,32.42Zm9.32,11.51a1.55,1.55,0,1,1,1.55-1.55A1.54,1.54,0,0,1,1762.26,43.93Zm0-11.51a1.56,1.56,0,1,1,1.55-1.56A1.55,1.55,0,0,1,1762.26,32.42Zm9.32,23a1.56,1.56,0,1,1,1.56-1.55A1.55,1.55,0,0,1,1771.58,55.45Zm0-23a1.56,1.56,0,1,1,1.56-1.56A1.55,1.55,0,0,1,1771.58,32.42Zm9.32,23a1.56,1.56,0,1,1,1.56-1.55A1.56,1.56,0,0,1,1780.9,55.45Zm0-23a1.56,1.56,0,1,1,1.56-1.56A1.56,1.56,0,0,1,1780.9,32.42Zm9.32,23a1.56,1.56,0,1,1,1.56-1.55A1.56,1.56,0,0,1,1790.22,55.45Zm0-23a1.56,1.56,0,1,1,1.56-1.56A1.56,1.56,0,0,1,1790.22,32.42Zm9.33,23a1.56,1.56,0,1,1,1.55-1.55A1.56,1.56,0,0,1,1799.55,55.45Zm0-11.52a1.55,1.55,0,1,1,1.55-1.55A1.55,1.55,0,0,1,1799.55,43.93Zm0-11.51a1.56,1.56,0,1,1,1.55-1.56A1.56,1.56,0,0,1,1799.55,32.42Zm9.32,23a1.56,1.56,0,1,1,1.55-1.55A1.56,1.56,0,0,1,1808.87,55.45Zm0-11.52a1.55,1.55,0,1,1,1.55-1.55A1.55,1.55,0,0,1,1808.87,43.93Zm0-11.51a1.56,1.56,0,1,1,1.55-1.56A1.56,1.56,0,0,1,1808.87,32.42Zm9.32,23a1.56,1.56,0,1,1,1.55-1.55A1.55,1.55,0,0,1,1818.19,55.45Zm0-11.52a1.55,1.55,0,1,1,1.55-1.55A1.54,1.54,0,0,1,1818.19,43.93Zm0-11.51a1.56,1.56,0,1,1,1.55-1.56A1.55,1.55,0,0,1,1818.19,32.42Z"/></g></g></svg>